<?xml version="1.0" encoding="UTF-8" standalone="no"?>
<!DOCTYPE svg PUBLIC "-//W3C//DTD SVG 20010904//EN"
              "http://www.w3.org/TR/2001/REC-SVG-20010904/DTD/svg10.dtd">

<svg xmlns="http://www.w3.org/2000/svg"
     width="144.51mm" height="144.51mm"
     viewBox="0 0 512 512">
  <path id="Selección #1"
        fill="#A17D18" stroke="white" stroke-width="1"
        d="M 104.00,254.00
           C 104.00,240.03 103.45,232.90 107.43,219.00
             116.05,188.91 139.90,165.32 165.00,148.02
             165.00,148.02 196.00,129.00 196.00,129.00
             196.00,129.00 176.00,92.00 176.00,92.00
             165.98,96.82 148.49,107.67 139.00,114.00
             89.86,146.74 50.17,188.76 32.03,246.00
             23.33,273.44 21.67,296.53 22.00,325.00
             22.56,372.63 62.69,426.41 113.00,427.00
             130.37,427.20 143.68,425.68 159.00,416.55
             181.08,403.39 197.69,377.03 198.00,351.00
             198.18,335.64 198.38,325.59 192.13,311.00
             176.66,274.88 142.12,255.75 104.00,254.00 Z
           M 462.00,92.00
           C 462.00,92.00 431.00,110.69 431.00,110.69
             413.15,122.19 396.74,134.93 381.00,149.17
             371.57,157.70 360.32,170.76 352.63,181.00
             324.23,218.81 312.11,255.28 308.91,302.00
             308.91,302.00 308.00,314.00 308.00,314.00
             308.00,314.00 308.00,319.00 308.00,319.00
             308.19,334.84 312.53,354.68 319.32,369.00
             333.42,398.74 365.76,426.60 400.00,427.00
             417.84,427.20 430.24,425.94 446.00,416.55
             480.13,396.20 494.32,349.58 479.55,313.00
             464.45,275.61 430.18,255.80 391.00,254.00
             391.00,238.19 391.16,228.26 396.69,213.00
             408.47,180.54 438.71,154.41 468.00,137.72
             468.00,137.72 482.00,130.00 482.00,130.00
             480.63,122.71 476.19,116.47 472.78,110.00
             469.54,103.86 467.02,96.93 462.00,92.00 Z" />
</svg>
